<mxfile host="app.diagrams.net" modified="2023-08-18T13:34:43.230Z" agent="Mozilla/5.0 (X11; Linux x86_64) AppleWebKit/537.36 (KHTML, like Gecko) Chrome/116.0.0.0 Safari/537.36" etag="Ej5vI0x5vv48pyCz6F7a" version="21.6.8" type="github">
  <diagram id="C5RBs43oDa-KdzZeNtuy" name="Page-1">
    <mxGraphModel dx="1050" dy="595" grid="1" gridSize="10" guides="1" tooltips="1" connect="1" arrows="1" fold="1" page="1" pageScale="1" pageWidth="827" pageHeight="1169" math="0" shadow="0">
      <root>
        <mxCell id="WIyWlLk6GJQsqaUBKTNV-0" />
        <mxCell id="WIyWlLk6GJQsqaUBKTNV-1" parent="WIyWlLk6GJQsqaUBKTNV-0" />
        <mxCell id="LNYa4yegLpWQGbFy4UBF-5" value="" style="edgeStyle=orthogonalEdgeStyle;rounded=0;orthogonalLoop=1;jettySize=auto;html=1;" edge="1" parent="WIyWlLk6GJQsqaUBKTNV-1" source="LNYa4yegLpWQGbFy4UBF-0" target="LNYa4yegLpWQGbFy4UBF-4">
          <mxGeometry relative="1" as="geometry" />
        </mxCell>
        <mxCell id="LNYa4yegLpWQGbFy4UBF-0" value="START" style="rounded=1;whiteSpace=wrap;html=1;" vertex="1" parent="WIyWlLk6GJQsqaUBKTNV-1">
          <mxGeometry x="350" y="200" width="120" height="60" as="geometry" />
        </mxCell>
        <mxCell id="LNYa4yegLpWQGbFy4UBF-1" value="BOOKING PAGE" style="text;html=1;strokeColor=none;fillColor=none;align=center;verticalAlign=middle;whiteSpace=wrap;rounded=0;" vertex="1" parent="WIyWlLk6GJQsqaUBKTNV-1">
          <mxGeometry x="347" y="140" width="126" height="30" as="geometry" />
        </mxCell>
        <mxCell id="LNYa4yegLpWQGbFy4UBF-10" value="" style="edgeStyle=orthogonalEdgeStyle;rounded=0;orthogonalLoop=1;jettySize=auto;html=1;" edge="1" parent="WIyWlLk6GJQsqaUBKTNV-1" source="LNYa4yegLpWQGbFy4UBF-4" target="LNYa4yegLpWQGbFy4UBF-9">
          <mxGeometry relative="1" as="geometry" />
        </mxCell>
        <mxCell id="LNYa4yegLpWQGbFy4UBF-11" value="fFALSE TANGGAL DEFAULT NOT SET" style="edgeLabel;html=1;align=center;verticalAlign=middle;resizable=0;points=[];" vertex="1" connectable="0" parent="LNYa4yegLpWQGbFy4UBF-10">
          <mxGeometry x="-0.1556" y="-2" relative="1" as="geometry">
            <mxPoint as="offset" />
          </mxGeometry>
        </mxCell>
        <mxCell id="LNYa4yegLpWQGbFy4UBF-13" value="" style="edgeStyle=orthogonalEdgeStyle;rounded=0;orthogonalLoop=1;jettySize=auto;html=1;" edge="1" parent="WIyWlLk6GJQsqaUBKTNV-1" source="LNYa4yegLpWQGbFy4UBF-4" target="LNYa4yegLpWQGbFy4UBF-12">
          <mxGeometry relative="1" as="geometry" />
        </mxCell>
        <mxCell id="LNYa4yegLpWQGbFy4UBF-32" value="Text" style="edgeLabel;html=1;align=center;verticalAlign=middle;resizable=0;points=[];" vertex="1" connectable="0" parent="LNYa4yegLpWQGbFy4UBF-13">
          <mxGeometry x="-0.1644" y="-2" relative="1" as="geometry">
            <mxPoint as="offset" />
          </mxGeometry>
        </mxCell>
        <mxCell id="LNYa4yegLpWQGbFy4UBF-4" value="SET DATE" style="rhombus;whiteSpace=wrap;html=1;" vertex="1" parent="WIyWlLk6GJQsqaUBKTNV-1">
          <mxGeometry x="353" y="360" width="114" height="90" as="geometry" />
        </mxCell>
        <mxCell id="LNYa4yegLpWQGbFy4UBF-8" value="" style="edgeStyle=orthogonalEdgeStyle;rounded=0;orthogonalLoop=1;jettySize=auto;html=1;" edge="1" parent="WIyWlLk6GJQsqaUBKTNV-1" source="LNYa4yegLpWQGbFy4UBF-6" target="LNYa4yegLpWQGbFy4UBF-4">
          <mxGeometry relative="1" as="geometry" />
        </mxCell>
        <mxCell id="LNYa4yegLpWQGbFy4UBF-6" value="DEFAULT DATE ADALAH TANGGAL HARI INI" style="text;html=1;strokeColor=none;fillColor=none;align=center;verticalAlign=middle;whiteSpace=wrap;rounded=0;" vertex="1" parent="WIyWlLk6GJQsqaUBKTNV-1">
          <mxGeometry x="450" y="280" width="250" height="30" as="geometry" />
        </mxCell>
        <mxCell id="LNYa4yegLpWQGbFy4UBF-9" value="DISPLAY LAPANGAN DI HARI INI SESUAI DEFAULT&amp;nbsp;" style="rounded=1;whiteSpace=wrap;html=1;fillColor=#f8cecc;strokeColor=#b85450;" vertex="1" parent="WIyWlLk6GJQsqaUBKTNV-1">
          <mxGeometry x="790" y="390" width="200" height="30" as="geometry" />
        </mxCell>
        <mxCell id="LNYa4yegLpWQGbFy4UBF-12" value="DISPLAY LAPANGAN SESUAI DATES YANG DI TENTUKAN" style="rounded=1;whiteSpace=wrap;html=1;" vertex="1" parent="WIyWlLk6GJQsqaUBKTNV-1">
          <mxGeometry x="338" y="540" width="150" height="60" as="geometry" />
        </mxCell>
        <mxCell id="LNYa4yegLpWQGbFy4UBF-14" value="1" style="whiteSpace=wrap;html=1;aspect=fixed;" vertex="1" parent="WIyWlLk6GJQsqaUBKTNV-1">
          <mxGeometry x="200" y="650" width="120" height="120" as="geometry" />
        </mxCell>
        <mxCell id="LNYa4yegLpWQGbFy4UBF-23" value="" style="edgeStyle=orthogonalEdgeStyle;rounded=0;orthogonalLoop=1;jettySize=auto;html=1;" edge="1" parent="WIyWlLk6GJQsqaUBKTNV-1" source="LNYa4yegLpWQGbFy4UBF-15" target="LNYa4yegLpWQGbFy4UBF-14">
          <mxGeometry relative="1" as="geometry" />
        </mxCell>
        <mxCell id="LNYa4yegLpWQGbFy4UBF-31" value="" style="edgeStyle=orthogonalEdgeStyle;rounded=0;orthogonalLoop=1;jettySize=auto;html=1;" edge="1" parent="WIyWlLk6GJQsqaUBKTNV-1" source="LNYa4yegLpWQGbFy4UBF-15" target="LNYa4yegLpWQGbFy4UBF-19">
          <mxGeometry relative="1" as="geometry" />
        </mxCell>
        <mxCell id="LNYa4yegLpWQGbFy4UBF-15" value="2" style="whiteSpace=wrap;html=1;aspect=fixed;" vertex="1" parent="WIyWlLk6GJQsqaUBKTNV-1">
          <mxGeometry x="353" y="650" width="120" height="120" as="geometry" />
        </mxCell>
        <mxCell id="LNYa4yegLpWQGbFy4UBF-22" value="" style="edgeStyle=orthogonalEdgeStyle;rounded=0;orthogonalLoop=1;jettySize=auto;html=1;" edge="1" parent="WIyWlLk6GJQsqaUBKTNV-1" source="LNYa4yegLpWQGbFy4UBF-16" target="LNYa4yegLpWQGbFy4UBF-15">
          <mxGeometry relative="1" as="geometry" />
        </mxCell>
        <mxCell id="LNYa4yegLpWQGbFy4UBF-24" value="" style="edgeStyle=orthogonalEdgeStyle;rounded=0;orthogonalLoop=1;jettySize=auto;html=1;" edge="1" parent="WIyWlLk6GJQsqaUBKTNV-1" source="LNYa4yegLpWQGbFy4UBF-16" target="LNYa4yegLpWQGbFy4UBF-17">
          <mxGeometry relative="1" as="geometry" />
        </mxCell>
        <mxCell id="LNYa4yegLpWQGbFy4UBF-30" value="" style="edgeStyle=orthogonalEdgeStyle;rounded=0;orthogonalLoop=1;jettySize=auto;html=1;" edge="1" parent="WIyWlLk6GJQsqaUBKTNV-1" source="LNYa4yegLpWQGbFy4UBF-16" target="LNYa4yegLpWQGbFy4UBF-20">
          <mxGeometry relative="1" as="geometry" />
        </mxCell>
        <mxCell id="LNYa4yegLpWQGbFy4UBF-16" value="3" style="whiteSpace=wrap;html=1;aspect=fixed;" vertex="1" parent="WIyWlLk6GJQsqaUBKTNV-1">
          <mxGeometry x="500" y="650" width="120" height="120" as="geometry" />
        </mxCell>
        <mxCell id="LNYa4yegLpWQGbFy4UBF-29" value="" style="edgeStyle=orthogonalEdgeStyle;rounded=0;orthogonalLoop=1;jettySize=auto;html=1;" edge="1" parent="WIyWlLk6GJQsqaUBKTNV-1" source="LNYa4yegLpWQGbFy4UBF-17" target="LNYa4yegLpWQGbFy4UBF-21">
          <mxGeometry relative="1" as="geometry" />
        </mxCell>
        <mxCell id="LNYa4yegLpWQGbFy4UBF-17" value="4" style="whiteSpace=wrap;html=1;aspect=fixed;" vertex="1" parent="WIyWlLk6GJQsqaUBKTNV-1">
          <mxGeometry x="660" y="650" width="120" height="120" as="geometry" />
        </mxCell>
        <mxCell id="LNYa4yegLpWQGbFy4UBF-25" value="" style="edgeStyle=orthogonalEdgeStyle;rounded=0;orthogonalLoop=1;jettySize=auto;html=1;" edge="1" parent="WIyWlLk6GJQsqaUBKTNV-1" source="LNYa4yegLpWQGbFy4UBF-18" target="LNYa4yegLpWQGbFy4UBF-14">
          <mxGeometry relative="1" as="geometry" />
        </mxCell>
        <mxCell id="LNYa4yegLpWQGbFy4UBF-26" value="" style="edgeStyle=orthogonalEdgeStyle;rounded=0;orthogonalLoop=1;jettySize=auto;html=1;" edge="1" parent="WIyWlLk6GJQsqaUBKTNV-1" source="LNYa4yegLpWQGbFy4UBF-18" target="LNYa4yegLpWQGbFy4UBF-19">
          <mxGeometry relative="1" as="geometry" />
        </mxCell>
        <mxCell id="LNYa4yegLpWQGbFy4UBF-18" value="5" style="whiteSpace=wrap;html=1;aspect=fixed;" vertex="1" parent="WIyWlLk6GJQsqaUBKTNV-1">
          <mxGeometry x="200" y="800" width="120" height="120" as="geometry" />
        </mxCell>
        <mxCell id="LNYa4yegLpWQGbFy4UBF-19" value="6" style="whiteSpace=wrap;html=1;aspect=fixed;" vertex="1" parent="WIyWlLk6GJQsqaUBKTNV-1">
          <mxGeometry x="353" y="800" width="120" height="120" as="geometry" />
        </mxCell>
        <mxCell id="LNYa4yegLpWQGbFy4UBF-27" value="" style="edgeStyle=orthogonalEdgeStyle;rounded=0;orthogonalLoop=1;jettySize=auto;html=1;" edge="1" parent="WIyWlLk6GJQsqaUBKTNV-1" source="LNYa4yegLpWQGbFy4UBF-20" target="LNYa4yegLpWQGbFy4UBF-19">
          <mxGeometry relative="1" as="geometry" />
        </mxCell>
        <mxCell id="LNYa4yegLpWQGbFy4UBF-20" value="7" style="whiteSpace=wrap;html=1;aspect=fixed;" vertex="1" parent="WIyWlLk6GJQsqaUBKTNV-1">
          <mxGeometry x="500" y="800" width="120" height="120" as="geometry" />
        </mxCell>
        <mxCell id="LNYa4yegLpWQGbFy4UBF-28" value="" style="edgeStyle=orthogonalEdgeStyle;rounded=0;orthogonalLoop=1;jettySize=auto;html=1;" edge="1" parent="WIyWlLk6GJQsqaUBKTNV-1" source="LNYa4yegLpWQGbFy4UBF-21" target="LNYa4yegLpWQGbFy4UBF-20">
          <mxGeometry relative="1" as="geometry" />
        </mxCell>
        <mxCell id="LNYa4yegLpWQGbFy4UBF-21" value="8" style="whiteSpace=wrap;html=1;aspect=fixed;" vertex="1" parent="WIyWlLk6GJQsqaUBKTNV-1">
          <mxGeometry x="660" y="800" width="120" height="120" as="geometry" />
        </mxCell>
        <mxCell id="LNYa4yegLpWQGbFy4UBF-33" value="&lt;h1&gt;Mekanisme Lapangan&lt;/h1&gt;&lt;p&gt;Lorem ipsum dolor sit amet, consectetur adipisicing elit, sed do eiusmod tempor incididunt ut labore et dolore magna aliqua.&lt;/p&gt;" style="text;html=1;strokeColor=none;fillColor=none;spacing=5;spacingTop=-20;whiteSpace=wrap;overflow=hidden;rounded=0;" vertex="1" parent="WIyWlLk6GJQsqaUBKTNV-1">
          <mxGeometry x="850" y="600" width="190" height="120" as="geometry" />
        </mxCell>
      </root>
    </mxGraphModel>
  </diagram>
</mxfile>
